<svg width="31" height="26" viewBox="0 0 31 26" fill="none" xmlns="http://www.w3.org/2000/svg">
<path d="M26.8944 3.07654H21.9851L20.274 0H10.726L9.01489 3.07654H4.10563C1.84182 3.07654 0 4.94381 0 7.23891V21.8376C0 24.1327 1.84182 26 4.10563 26H26.8944C29.1582 26 31 24.1327 31 21.8376V7.23891C31 4.94381 29.1582 3.07654 26.8944 3.07654ZM15.5 22.7722C11.2512 22.7722 7.79463 19.2675 7.79463 14.9603C7.79463 10.6535 11.2512 7.14879 15.5 7.14879C19.7488 7.14879 23.2054 10.6535 23.2054 14.9603C23.2054 19.2675 19.7488 22.7722 15.5 22.7722ZM16.7495 9.68241H14.2505V13.6638H10.3233V16.1974H14.2505V20.1788H16.7495V16.1974H20.6767V13.6638H16.7495V9.68241Z" fill="white" fill-opacity="0.92"/>
</svg>
