<svg width="38" height="38" viewBox="0 0 38 38" fill="none" xmlns="http://www.w3.org/2000/svg">
<circle cx="19" cy="19" r="19" fill="#202442"/>
<path fill-rule="evenodd" clip-rule="evenodd" d="M26.3849 11.9999C25.8326 11.4476 24.9372 11.4476 24.3849 11.9999L19.3131 17.0717L14.2414 11.9999C13.6891 11.4476 12.7936 11.4476 12.2414 11.9999C11.6891 12.5522 11.6891 13.4476 12.2414 13.9999L17.3131 19.0717L11.3849 24.9999C10.8326 25.5522 10.8326 26.4476 11.3849 26.9999C11.9372 27.5522 12.8326 27.5522 13.3849 26.9999L19.3131 21.0717L25.2414 26.9999C25.7937 27.5522 26.6891 27.5522 27.2414 26.9999C27.7937 26.4476 27.7936 25.5522 27.2414 24.9999L21.3131 19.0717L26.3849 13.9999C26.9372 13.4476 26.9372 12.5522 26.3849 11.9999Z" fill="white"/>
</svg>
