<svg width="381" height="412" viewBox="0 0 381 412" fill="none" xmlns="http://www.w3.org/2000/svg">
<g opacity="0.2">
<path d="M-94.5033 366.726C-141.91 259.365 -93.3092 133.904 14.0512 86.4967C121.412 39.0897 246.873 87.6907 294.28 195.051C341.687 302.412 293.086 427.873 185.726 475.28C78.3655 522.687 -47.0963 474.086 -94.5033 366.726ZM-82.4281 361.394C-38.0369 461.925 79.8632 507.596 180.394 463.205C280.925 418.814 326.596 300.914 282.205 200.383C237.814 99.8525 119.914 54.1806 19.3832 98.5718C-81.1475 142.963 -126.819 260.863 -82.4281 361.394Z" fill="url(#paint0_linear)" stroke="url(#paint1_linear)"/>
<path d="M40.3713 137.932L40.3717 137.932L188.607 153.97C190.951 154.224 192.982 155.709 193.935 157.866L254.163 294.26C255.115 296.418 254.844 298.919 253.452 300.822L165.444 421.178C164.749 422.13 163.825 422.86 162.783 423.32C161.74 423.781 160.579 423.971 159.407 423.844L11.1754 407.804C11.1754 407.804 11.1754 407.804 11.1753 407.804C8.83129 407.55 6.8004 406.066 5.84779 403.908L-54.3797 267.514C-55.3324 265.357 -55.061 262.856 -53.6697 260.952L34.3341 140.598L34.3344 140.598C35.728 138.689 38.0214 137.676 40.3713 137.932ZM43.027 151.496L42.74 151.465L42.5696 151.698L-35.7467 258.803L-36.2577 259.501L-35.397 259.595L96.5165 273.904L96.8037 273.936L96.9741 273.702L175.279 166.561L175.79 165.862L174.93 165.769L43.027 151.496ZM-36.8336 272.715L-37.6948 272.621L-37.3449 273.414L16.2672 394.827L16.3838 395.091L16.6708 395.122L148.584 409.396L149.445 409.489L149.095 408.696L95.5002 287.323L95.3836 287.059L95.0967 287.028L-36.8336 272.715ZM161.178 403.382L161.528 404.174L162.039 403.475L240.376 296.335L240.546 296.102L240.43 295.838L186.812 174.413L186.462 173.62L185.951 174.32L107.629 281.494L107.459 281.727L107.575 281.991L161.178 403.382Z" fill="url(#paint2_linear)" stroke="url(#paint3_linear)"/>
</g>
<defs>
<linearGradient id="paint0_linear" x1="-309.915" y1="319.553" x2="392.217" y2="316.735" gradientUnits="userSpaceOnUse">
<stop stop-color="#7033FF"/>
<stop offset="0.195347" stop-color="#4E7CFF"/>
<stop offset="1" stop-color="#F65164"/>
</linearGradient>
<linearGradient id="paint1_linear" x1="-309.915" y1="319.553" x2="392.217" y2="316.735" gradientUnits="userSpaceOnUse">
<stop stop-color="#7033FF"/>
<stop offset="0.195347" stop-color="#4E7CFF"/>
<stop offset="1" stop-color="#F65164"/>
</linearGradient>
<linearGradient id="paint2_linear" x1="-167.129" y1="294.444" x2="290.173" y2="270.701" gradientUnits="userSpaceOnUse">
<stop stop-color="#7033FF"/>
<stop offset="0.195347" stop-color="#4E7CFF"/>
<stop offset="1" stop-color="#F65164"/>
</linearGradient>
<linearGradient id="paint3_linear" x1="-167.129" y1="294.444" x2="290.173" y2="270.701" gradientUnits="userSpaceOnUse">
<stop stop-color="#7033FF"/>
<stop offset="0.195347" stop-color="#4E7CFF"/>
<stop offset="1" stop-color="#F65164"/>
</linearGradient>
</defs>
</svg>
