<svg width="111" height="82" viewBox="0 0 111 82" fill="none" xmlns="http://www.w3.org/2000/svg">
<path d="M43.5413 14.6713L50.8897 18.7458C51.0827 18.8528 51.3023 18.9307 51.536 18.975C51.7697 19.0192 52.0129 19.029 52.2518 19.0038C52.4906 18.9786 52.7204 18.9188 52.928 18.828C53.1356 18.7371 53.3169 18.6169 53.4617 18.4742C53.6064 18.3315 53.7117 18.1691 53.7716 17.9964C53.8315 17.8236 53.8447 17.6438 53.8106 17.4672C53.7765 17.2906 53.6957 17.1208 53.5727 16.9673C53.4498 16.8138 53.2872 16.6797 53.0942 16.5727L50.8897 15.3503C55.267 15.9032 59.4708 17.0429 63.2939 18.7132C62.5223 19.3448 61.7544 19.9791 61.0269 20.6378C60.8416 20.804 60.713 21.0006 60.6516 21.2112C60.5902 21.4217 60.598 21.6401 60.6741 21.8479L61.883 25.1864L59.5057 24.1786C59.1022 24.0062 58.6251 23.9536 58.1711 24.0315C57.7171 24.1095 57.3201 24.3121 57.0605 24.5983C56.0887 25.6699 55.2694 26.6356 54.5529 27.5537C52.719 29.8979 52.06 32.6447 52.6915 35.3122C53.3231 37.9797 55.2048 40.3977 58.0067 42.1421L50.5333 51.7146C50.4108 51.8691 50.3308 52.04 50.298 52.2175C50.2651 52.395 50.2801 52.5755 50.3421 52.7487C50.404 52.9218 50.5116 53.0842 50.6588 53.2265C50.806 53.3688 50.9898 53.4882 51.1996 53.5777C51.4094 53.6673 51.6411 53.7253 51.8814 53.7484C52.1216 53.7715 52.3657 53.7592 52.5995 53.7123C52.8333 53.6653 53.0522 53.5847 53.2437 53.4749C53.4352 53.3652 53.5954 53.2285 53.7152 53.0728L61.093 43.6252C63.248 44.4383 65.6308 44.8667 68.0501 44.8761C70.7951 44.8746 73.4913 44.3401 75.8691 43.3261C78.2468 42.3121 80.2226 40.8543 81.5988 39.0984L86.3459 33.0136C86.5384 32.7668 86.6211 32.4815 86.5822 32.198C86.5433 31.9145 86.3848 31.6473 86.1291 31.4341L82.9619 28.7965L90.1267 27.3758C90.5969 27.2828 90.9979 27.0556 91.2418 26.7442L96.6925 19.7658C96.9361 19.4537 97.002 19.0828 96.8758 18.7348C96.7495 18.3867 96.4414 18.09 96.0192 17.9099C95.597 17.7298 95.0953 17.681 94.6245 17.7744C94.1537 17.8677 93.7524 18.0955 93.5088 18.4076L88.4402 24.8984L79.1371 26.7415C78.8348 26.8015 78.5583 26.9177 78.3337 27.0789C78.1092 27.2401 77.9441 27.4411 77.8541 27.6627C77.7641 27.8844 77.7522 28.1193 77.8195 28.3453C77.8868 28.5713 78.0311 28.7808 78.2387 28.954L82.499 32.5057L78.4169 37.7334C76.9193 39.6531 74.4984 41.0853 71.6366 41.7448C68.7748 42.4042 65.682 42.2425 62.9742 41.2918C73.3859 28.368 86.6729 16.8357 102.275 7.18081L96.9625 13.984C96.84 14.1385 96.76 14.3094 96.7272 14.4869C96.6944 14.6644 96.7094 14.8449 96.7713 15.0181C96.8332 15.1912 96.9409 15.3536 97.088 15.4959C97.2352 15.6382 97.419 15.7576 97.6288 15.8471C97.8386 15.9367 98.0703 15.9947 98.3106 16.0178C98.5508 16.0409 98.7949 16.0286 99.0287 15.9816C99.2625 15.9347 99.4815 15.8541 99.673 15.7443C99.8644 15.6346 100.025 15.4979 100.144 15.3422L110.533 2.04005C110.533 2.0319 110.533 2.0224 110.548 2.01425C110.572 1.98165 110.579 1.94634 110.601 1.91238C110.671 1.79955 110.72 1.68033 110.746 1.55789C110.756 1.50764 110.756 1.45875 110.759 1.40713C110.763 1.29588 110.75 1.18466 110.719 1.07573C110.706 1.0262 110.689 0.977226 110.669 0.92905C110.607 0.791368 110.515 0.662025 110.397 0.546039C110.384 0.533816 110.381 0.516159 110.366 0.503935V0.497144L110.357 0.486279C110.215 0.365744 110.046 0.264596 109.857 0.187476C109.8 0.164387 109.741 0.150805 109.683 0.13179C109.543 0.0851429 109.396 0.0522634 109.245 0.0340004C109.176 0.0247701 109.105 0.0188723 109.034 0.0163439C108.882 0.0120563 108.731 0.0220975 108.582 0.0462243C108.517 0.0534368 108.452 0.0634128 108.388 0.0761043C108.364 0.0761043 108.34 0.0761045 108.318 0.08697L91.1848 4.74286C86.5057 6.01785 82.0231 7.65689 77.8125 9.63235C77.5417 9.75926 77.3206 9.93635 77.171 10.146C77.0215 10.3557 76.9488 10.5907 76.9601 10.8276L77.0354 12.4411L75.8358 11.762C75.5192 11.5843 75.1332 11.4873 74.7357 11.4856C74.3382 11.4839 73.9507 11.5775 73.6313 11.7525C70.8911 13.2641 68.3025 14.9204 65.886 16.7085C61.4292 14.661 56.472 13.2803 51.2957 12.6448L52.8132 12.0839C53.2492 11.9229 53.5809 11.6404 53.7353 11.2986C53.8896 10.9567 53.854 10.5836 53.6362 10.2612C53.4184 9.9388 53.0363 9.69358 52.5739 9.57947C52.1116 9.46536 51.6068 9.49171 51.1708 9.65273L43.8223 12.3691C43.5401 12.4721 43.2983 12.627 43.1203 12.819C42.9423 13.0109 42.834 13.2335 42.8057 13.4653C42.7775 13.6971 42.8303 13.9304 42.9591 14.1427C43.0879 14.3551 43.2884 14.5394 43.5413 14.678V14.6713ZM74.7262 14.5517L77.8952 16.3282C78.1721 16.482 78.5022 16.5748 78.8474 16.5958C79.1925 16.6169 79.5387 16.5654 79.846 16.4472C80.1533 16.3291 80.4091 16.1492 80.584 15.9282C80.7589 15.7072 80.8458 15.4541 80.8346 15.1982L80.66 11.5148C84.3917 9.82516 88.3391 8.41082 92.4451 7.29219L99.4518 5.39071C83.7881 15.148 70.432 26.7661 59.9319 39.7679C57.954 38.4093 56.6587 36.5943 56.2582 34.6203C55.8577 32.6463 56.3757 30.6303 57.7274 28.9024C58.1591 28.3483 58.6349 27.7737 59.164 27.1639L63.8781 29.1754C64.1927 29.3093 64.554 29.3713 64.9163 29.3536C65.2786 29.3358 65.6256 29.2391 65.9136 29.0756C66.2016 28.9121 66.4176 28.6892 66.5343 28.435C66.651 28.1808 66.6632 27.9067 66.5694 27.6474L64.4586 21.8208C67.5213 19.1344 70.9634 16.6976 74.7262 14.5517Z" fill="white"/>
<path d="M81.233 44.3883C80.7391 48.7085 78.8489 52.8778 75.7217 56.5455C75.5694 56.6953 75.4607 56.8667 75.4023 57.049C75.344 57.2314 75.3373 57.4206 75.3828 57.605C75.4282 57.7893 75.5247 57.9647 75.6662 58.1201C75.8077 58.2755 75.9912 58.4076 76.2052 58.5081C76.4191 58.6086 76.6588 58.6752 76.9093 58.7038C77.1597 58.7325 77.4155 58.7225 77.6604 58.6746C77.9054 58.6266 78.1343 58.5417 78.3328 58.4251C78.5312 58.3086 78.6949 58.163 78.8135 57.9974C82.2579 53.9604 84.3408 49.371 84.887 44.6151C84.9082 44.437 84.8815 44.2575 84.8086 44.087C84.7357 43.9165 84.618 43.7584 84.4622 43.6216C84.3065 43.4848 84.1157 43.3721 83.9008 43.29C83.686 43.2078 83.4514 43.1579 83.2103 43.1429C82.9693 43.128 82.7267 43.1484 82.4964 43.203C82.266 43.2575 82.0526 43.3452 81.8682 43.4609C81.6838 43.5766 81.5321 43.7181 81.4218 43.8772C81.3116 44.0364 81.2449 44.2101 81.2257 44.3883H81.233Z" fill="white"/>
<path d="M15.7147 62.2829C16.068 62.2822 16.4135 62.2063 16.7099 62.0641C17.0063 61.922 17.2409 61.7197 17.3857 61.4815C17.5306 61.2432 17.5794 60.9792 17.5264 60.721C17.4734 60.4627 17.3209 60.2213 17.087 60.0255C13.3926 56.9333 10.7011 53.2587 9.21761 49.2813C7.7341 45.304 7.49764 41.1289 8.52621 37.0738C9.55479 33.0187 11.8213 29.1905 15.1532 25.8808C18.485 22.5711 22.7944 19.867 27.7533 17.9745C27.9716 17.8942 28.1661 17.7825 28.3254 17.6461C28.4848 17.5096 28.6057 17.351 28.6813 17.1796C28.7569 17.0082 28.7856 16.8274 28.7657 16.6477C28.7458 16.468 28.6777 16.2931 28.5654 16.133C28.4531 15.973 28.2988 15.8311 28.1116 15.7156C27.9243 15.6002 27.7078 15.5134 27.4747 15.4604C27.2417 15.4074 26.9966 15.3892 26.754 15.407C26.5113 15.4247 26.2758 15.478 26.0613 15.5637C20.6068 17.6462 15.8668 20.6213 12.2021 24.2624C8.53747 27.9036 6.04471 32.1148 4.9136 36.5757C3.78249 41.0365 4.04284 45.6293 5.67483 50.0046C7.30683 54.3798 10.2675 58.4221 14.3314 61.8238C14.5045 61.9687 14.7174 62.0846 14.956 62.1638C15.1945 62.2429 15.4532 62.2835 15.7147 62.2829Z" fill="white"/>
<path d="M64.0547 56.6098C64.2356 56.7279 64.4462 56.8186 64.6745 56.8765C64.9028 56.9344 65.1443 56.9585 65.3852 56.9474C65.6261 56.9363 65.8616 56.8902 66.0784 56.8118C66.2952 56.7334 66.489 56.6241 66.6487 56.4903C69.312 54.2684 71.3259 51.6638 72.5641 48.8396C72.6514 48.6678 72.6908 48.4847 72.6797 48.3014C72.6687 48.1181 72.6075 47.9383 72.4999 47.773C72.3923 47.6076 72.2404 47.4601 72.0536 47.3393C71.8667 47.2186 71.6487 47.127 71.4127 47.0703C71.1766 47.0135 70.9275 46.9927 70.6803 47.0091C70.4331 47.0255 70.1929 47.0788 69.9743 47.1657C69.7557 47.2526 69.5632 47.3713 69.4084 47.5148C69.2536 47.6582 69.1397 47.8233 69.0736 48.0002C68.7036 48.8202 68.2574 49.6203 67.7381 50.3947L64.6572 49.08C64.2355 48.9027 63.7361 48.856 63.2679 48.9499C62.7997 49.0439 62.4008 49.271 62.1583 49.5816C61.9157 49.8922 61.8491 50.2611 61.9731 50.6078C62.0971 50.9546 62.4016 51.251 62.8201 51.4324L65.9046 52.7498C65.292 53.4279 64.622 54.0766 63.8985 54.692C63.7384 54.8255 63.6154 54.981 63.5366 55.1496C63.4578 55.3183 63.4247 55.4967 63.4392 55.6748C63.4537 55.8529 63.5155 56.0272 63.6211 56.1876C63.7267 56.348 63.874 56.4915 64.0547 56.6098Z" fill="white"/>
<path d="M46.4804 23.1425C48.1789 23.2301 49.8613 23.4421 51.5031 23.7754C51.7381 23.829 51.9852 23.8473 52.2299 23.829C52.4746 23.8107 52.7118 23.7563 52.9275 23.669C53.1432 23.5817 53.333 23.4632 53.4856 23.3207C53.6383 23.1781 53.7507 23.0144 53.8161 22.8391C53.8815 22.6639 53.8987 22.4807 53.8666 22.3004C53.8345 22.1202 53.7538 21.9465 53.6293 21.7897C53.5047 21.633 53.3388 21.4963 53.1415 21.3878C52.9442 21.2793 52.7194 21.2012 52.4804 21.1581C45.8234 19.7945 38.7293 20.2084 32.4441 22.3273C26.1588 24.4461 21.0843 28.1345 18.1117 32.7445C15.139 37.3545 14.4584 42.5914 16.1894 47.5355C17.9203 52.4796 21.952 56.8148 27.5766 59.7797C27.9736 59.9801 28.461 60.0574 28.9343 59.9951C29.4075 59.9328 29.8289 59.7359 30.108 59.4465C30.3871 59.1572 30.5017 58.7985 30.4272 58.4474C30.3527 58.0963 30.095 57.7808 29.7095 57.5686C27.2244 56.2566 25.0756 54.6275 23.3641 52.7579L26.4707 51.4323C26.6813 51.3437 26.8661 51.2253 27.0146 51.0837C27.163 50.9422 27.2721 50.7803 27.3356 50.6074C27.3991 50.4346 27.4157 50.2541 27.3844 50.0765C27.3532 49.8989 27.2748 49.7276 27.1536 49.5725C27.0325 49.4173 26.871 49.2815 26.6786 49.1727C26.4861 49.0639 26.2665 48.9843 26.0322 48.9385C25.798 48.8927 25.5538 48.8816 25.3138 48.9059C25.0737 48.9302 24.8426 48.9893 24.6335 49.0799L21.5454 50.3973C20.118 48.2262 19.2661 45.8731 19.0359 43.4651H22.598C23.0853 43.4651 23.5525 43.322 23.8971 43.0673C24.2416 42.8126 24.4351 42.4671 24.4351 42.1069C24.4351 41.7467 24.2416 41.4012 23.8971 41.1465C23.5525 40.8918 23.0853 40.7487 22.598 40.7487H19.0175C19.2469 38.3385 20.102 35.9835 21.5362 33.8124L24.6335 35.1339C24.8426 35.2245 25.0737 35.2837 25.3138 35.3079C25.5538 35.3322 25.798 35.3211 26.0322 35.2753C26.2665 35.2295 26.4861 35.15 26.6786 35.0412C26.871 34.9324 27.0325 34.7965 27.1536 34.6414C27.2748 34.4862 27.3532 34.3149 27.3844 34.1373C27.4157 33.9597 27.3991 33.7793 27.3356 33.6064C27.2721 33.4335 27.163 33.2717 27.0146 33.1301C26.8661 32.9885 26.6813 32.8701 26.4707 32.7816L23.3476 31.4505C25.185 29.451 27.5175 27.7266 30.222 26.3682L32.0224 28.6771C32.1421 28.8328 32.3024 28.9695 32.4938 29.0792C32.6853 29.189 32.9043 29.2696 33.1381 29.3165C33.3719 29.3635 33.616 29.3757 33.8562 29.3527C34.0965 29.3296 34.3282 29.2716 34.538 29.182C34.7478 29.0925 34.9316 28.9731 35.0788 28.8308C35.2259 28.6885 35.3336 28.5261 35.3955 28.353C35.4574 28.1798 35.4724 27.9993 35.4396 27.8218C35.4068 27.6443 35.3268 27.4734 35.2043 27.3189L33.4168 25.029C36.3552 23.9661 39.5431 23.3321 42.8062 23.1615V25.8086C42.8062 26.1688 42.9998 26.5143 43.3443 26.769C43.6888 27.0237 44.1561 27.1668 44.6433 27.1668C45.1306 27.1668 45.5978 27.0237 45.9424 26.769C46.2869 26.5143 46.4804 26.1688 46.4804 25.8086V23.1425Z" fill="white"/>
<path d="M44.6434 29.8831C44.1561 29.8831 43.6889 30.0262 43.3443 30.2809C42.9998 30.5356 42.8063 30.881 42.8063 31.2413V41.6545L37.6624 46.7247C37.37 47.0128 37.2445 47.3751 37.3134 47.7317C37.3823 48.0882 37.64 48.41 38.0298 48.6261C38.4196 48.8423 38.9095 48.9351 39.3918 48.8841C39.8742 48.8332 40.3094 48.6427 40.6017 48.3545L46.1131 42.9217C46.3515 42.6866 46.4805 42.4007 46.4805 42.1068V31.2413C46.4805 30.881 46.2869 30.5356 45.9424 30.2809C45.5979 30.0262 45.1306 29.8831 44.6434 29.8831Z" fill="white"/>
<path d="M109.31 73.3738L57.5031 65.4488C57.5107 64.8273 57.7109 64.2154 58.0883 63.66C58.4656 63.1047 59.0102 62.6206 59.68 62.2452C60.3499 61.8697 61.1273 61.6127 61.9524 61.4939C62.7776 61.3752 63.6286 61.3979 64.44 61.5603L98.8674 68.4123C99.023 68.444 99.1837 68.46 99.3451 68.4599C99.7911 68.4604 100.222 68.3409 100.558 68.1237C100.893 67.9066 101.111 67.6066 101.169 67.2797C101.228 66.9529 101.123 66.6214 100.875 66.3473C100.628 66.0731 100.254 65.8749 99.8227 65.7897L65.4027 58.9362C64.0413 58.6626 62.6128 58.6256 61.2289 58.8283C59.8451 59.0309 58.5434 59.4676 57.426 60.1043C56.7604 60.4848 56.1682 60.9308 55.666 61.4299C55.1638 60.9308 54.5716 60.4848 53.9061 60.1043C52.7889 59.4673 51.4872 59.0303 50.1033 58.8276C48.7193 58.625 47.2906 58.6621 45.9293 58.9362L11.5019 65.7897C9.94201 66.1014 8.56427 66.7841 7.58145 67.7323C6.59864 68.6806 6.0654 69.8417 6.06408 71.0364V72.7558L2.02244 73.3752C1.60811 73.4377 1.23564 73.604 0.96789 73.846C0.700143 74.088 0.553517 74.3908 0.552757 74.7035V80.1363C0.551466 80.3266 0.604332 80.5151 0.707923 80.6894C0.811515 80.8637 0.963518 81.02 1.15407 81.1481C1.34462 81.2761 1.56947 81.3731 1.81401 81.4328C2.05856 81.4925 2.31734 81.5135 2.57358 81.4945L26.5846 79.6514C26.8279 79.6362 27.0647 79.5853 27.2811 79.5017C27.4975 79.418 27.6892 79.3034 27.845 79.1643C28.0007 79.0253 28.1174 78.8647 28.1882 78.6919C28.259 78.5191 28.2826 78.3377 28.2574 78.1581C28.2322 77.9785 28.1589 77.8045 28.0417 77.6461C27.9245 77.4877 27.7658 77.3482 27.5748 77.2357C27.3838 77.1232 27.1644 77.04 26.9294 76.9909C26.6944 76.9419 26.4485 76.9279 26.2061 76.9499L4.22697 78.63V75.8091L53.8289 68.2222V73.3453C53.8289 73.7055 54.0225 74.051 54.367 74.3057C54.7115 74.5604 55.1788 74.7035 55.666 74.7035C56.1532 74.7035 56.6205 74.5604 56.965 74.3057C57.3096 74.051 57.5031 73.7055 57.5031 73.3453V68.2222L107.105 75.8091V78.63L63.1982 75.2726C62.9424 75.2546 62.6843 75.2757 62.44 75.3346C62.1957 75.3935 61.9704 75.4889 61.7781 75.6148C61.5871 75.7423 61.4344 75.898 61.33 76.0718C61.2255 76.2456 61.1717 76.4338 61.1718 76.624V77.4199C61.1718 77.7801 60.9783 78.1256 60.6337 78.3803C60.2892 78.635 59.822 78.7781 59.3347 78.7781H51.9918C51.5046 78.7781 51.0373 78.635 50.6928 78.3803C50.3482 78.1256 50.1547 77.7801 50.1547 77.4199V76.624C50.156 76.4336 50.1031 76.2451 49.9995 76.0708C49.8959 75.8965 49.7439 75.7402 49.5534 75.6122C49.3628 75.4841 49.138 75.3871 48.8934 75.3274C48.6489 75.2677 48.3901 75.2467 48.1339 75.2658L33.5233 76.3836C33.0457 76.4269 32.6102 76.6071 32.3104 76.8853C32.0106 77.1636 31.8704 77.5177 31.9199 77.8716C31.9695 78.2254 32.2049 78.5508 32.5755 78.7777C32.9461 79.0046 33.4223 79.1149 33.9018 79.085L46.5778 78.1166C46.7994 79.0603 47.4634 79.9161 48.4535 80.5338C49.4436 81.1515 50.6963 81.4916 51.9918 81.4945H59.3402C60.6369 81.4945 61.8921 81.1565 62.885 80.5399C63.8779 79.9233 64.545 79.0677 64.7689 78.1234L108.758 81.4945C108.823 81.4945 108.885 81.5012 108.942 81.5012C109.429 81.5012 109.897 81.3582 110.241 81.1034C110.586 80.8487 110.779 80.5033 110.779 80.1431V74.7035C110.779 74.3906 110.632 74.0874 110.365 73.8451C110.097 73.6029 109.724 73.4364 109.31 73.3738ZM9.7383 71.0364C9.73839 70.439 10.0048 69.8583 10.4963 69.3842C10.9878 68.9101 11.677 68.569 12.4572 68.4137L46.8846 61.5616C47.6964 61.3983 48.548 61.3748 49.374 61.493C50.2 61.6112 50.9783 61.8679 51.649 62.2434C52.3198 62.6188 52.8651 63.103 53.243 63.6587C53.6209 64.2144 53.8213 64.8268 53.8289 65.4488L9.7383 72.1922V71.0364Z" fill="white"/>
</svg>
