
<svg width="382" height="62" viewBox="0 0 265 44" fill="none" xmlns="http://www.w3.org/2000/svg">
<path d="M57.6927 33.556C57.9343 33.5942 58.1536 33.6927 58.3507 33.8516C58.5541 34.0105 58.713 34.2076 58.8274 34.4428C58.9482 34.678 59.0086 34.9291 59.0086 35.1961C59.0086 35.533 58.9228 35.8382 58.7512 36.1115C58.5795 36.3785 58.3284 36.5915 57.9979 36.7504C57.6737 36.903 57.2891 36.9792 56.8441 36.9792H54.3648V30.333H56.7487C57.2001 30.333 57.5847 30.4093 57.9025 30.5619C58.2203 30.7081 58.4587 30.9083 58.6177 31.1626C58.7766 31.4169 58.856 31.703 58.856 32.0208C58.856 32.4149 58.748 32.7423 58.5318 33.003C58.3221 33.2572 58.0424 33.4416 57.6927 33.556ZM55.2326 33.2032H56.6915C57.0983 33.2032 57.413 33.1079 57.6355 32.9171C57.858 32.7264 57.9692 32.4626 57.9692 32.1257C57.9692 31.7888 57.858 31.525 57.6355 31.3343C57.413 31.1435 57.092 31.0482 56.6724 31.0482H55.2326V33.2032ZM56.7678 36.2641C57.2001 36.2641 57.537 36.1624 57.7785 35.959C58.0201 35.7555 58.1409 35.4726 58.1409 35.1103C58.1409 34.7416 58.0137 34.4524 57.7595 34.2426C57.5052 34.0264 57.1651 33.9184 56.7392 33.9184H55.2326V36.2641H56.7678ZM64.7135 31.7538L61.5668 39.4394H60.6705L61.7003 36.922L59.593 31.7538H60.556L62.1961 35.9876L63.8172 31.7538H64.7135ZM72.5715 32.2783C72.5715 32.8313 72.3808 33.2922 71.9993 33.6609C71.6243 34.0233 71.049 34.2044 70.2734 34.2044H68.9957V36.9792H68.1279V30.333H70.2734C71.0235 30.333 71.5925 30.5142 71.9803 30.8766C72.3744 31.2389 72.5715 31.7061 72.5715 32.2783ZM70.2734 33.4893C70.7565 33.4893 71.1125 33.3844 71.3414 33.1746C71.5702 32.9648 71.6847 32.666 71.6847 32.2783C71.6847 31.4582 71.2143 31.0482 70.2734 31.0482H68.9957V33.4893H70.2734ZM74.5177 32.6025C74.6702 32.3037 74.8864 32.0717 75.1661 31.9064C75.4521 31.7411 75.7986 31.6585 76.2054 31.6585V32.5548H75.9766C75.004 32.5548 74.5177 33.0824 74.5177 34.1377V36.9792H73.6499V31.7538H74.5177V32.6025ZM79.4861 37.0651C78.9966 37.0651 78.5516 36.9538 78.1511 36.7313C77.757 36.5088 77.4455 36.1942 77.2166 35.7873C76.9942 35.3741 76.8829 34.8973 76.8829 34.357C76.8829 33.823 76.9973 33.3526 77.2262 32.9457C77.4614 32.5325 77.7792 32.2179 78.1797 32.0017C78.5802 31.7792 79.0284 31.668 79.5242 31.668C80.0201 31.668 80.4682 31.7792 80.8687 32.0017C81.2692 32.2179 81.5839 32.5294 81.8127 32.9362C82.0479 33.3431 82.1656 33.8167 82.1656 34.357C82.1656 34.8973 82.0448 35.3741 81.8032 35.7873C81.568 36.1942 81.247 36.5088 80.8401 36.7313C80.4333 36.9538 79.9819 37.0651 79.4861 37.0651ZM79.4861 36.3022C79.7976 36.3022 80.09 36.2291 80.3634 36.0829C80.6367 35.9367 80.856 35.7174 81.0213 35.425C81.1929 35.1325 81.2788 34.7766 81.2788 34.357C81.2788 33.9374 81.1961 33.5814 81.0308 33.289C80.8656 32.9966 80.6494 32.7805 80.3824 32.6406C80.1154 32.4944 79.8262 32.4213 79.5147 32.4213C79.1968 32.4213 78.9044 32.4944 78.6374 32.6406C78.3768 32.7805 78.167 32.9966 78.0081 33.289C77.8492 33.5814 77.7697 33.9374 77.7697 34.357C77.7697 34.7829 77.846 35.1421 77.9986 35.4345C78.1575 35.7269 78.3673 35.9462 78.6279 36.0925C78.8885 36.2323 79.1746 36.3022 79.4861 36.3022ZM85.4329 32.469H84.3363V36.9792H83.4686V32.469H82.7915V31.7538H83.4686V31.3819C83.4686 30.7971 83.6179 30.3712 83.9167 30.1042C84.2219 29.8308 84.7082 29.6942 85.3756 29.6942V30.4189C84.9942 30.4189 84.7241 30.4951 84.5651 30.6477C84.4126 30.7939 84.3363 31.0387 84.3363 31.3819V31.7538H85.4329V32.469ZM86.7211 37.0365C86.5558 37.0365 86.416 36.9792 86.3016 36.8648C86.1871 36.7504 86.1299 36.6105 86.1299 36.4453C86.1299 36.28 86.1871 36.1401 86.3016 36.0257C86.416 35.9113 86.5558 35.8541 86.7211 35.8541C86.88 35.8541 87.0135 35.9113 87.1216 36.0257C87.236 36.1401 87.2932 36.28 87.2932 36.4453C87.2932 36.6105 87.236 36.7504 87.1216 36.8648C87.0135 36.9792 86.88 37.0365 86.7211 37.0365ZM90.6646 33.6514C90.6646 33.003 90.8108 32.4213 91.1033 31.9064C91.3957 31.3851 91.793 30.9783 92.2952 30.6858C92.8037 30.3934 93.3663 30.2472 93.983 30.2472C94.7077 30.2472 95.3402 30.422 95.8805 30.7717C96.4209 31.1213 96.815 31.6171 97.0629 32.2592H96.0236C95.8392 31.8587 95.5722 31.5504 95.2226 31.3343C94.8793 31.1181 94.4661 31.01 93.983 31.01C93.5189 31.01 93.1025 31.1181 92.7338 31.3343C92.3651 31.5504 92.0759 31.8587 91.8661 32.2592C91.6563 32.6533 91.5514 33.1174 91.5514 33.6514C91.5514 34.179 91.6563 34.6431 91.8661 35.0435C92.0759 35.4377 92.3651 35.7428 92.7338 35.959C93.1025 36.1751 93.5189 36.2832 93.983 36.2832C94.4661 36.2832 94.8793 36.1783 95.2226 35.9685C95.5722 35.7524 95.8392 35.444 96.0236 35.0435H97.0629C96.815 35.6792 96.4209 36.1719 95.8805 36.5215C95.3402 36.8648 94.7077 37.0365 93.983 37.0365C93.3663 37.0365 92.8037 36.8934 92.2952 36.6074C91.793 36.3149 91.3957 35.9113 91.1033 35.3964C90.8108 34.8814 90.6646 34.2998 90.6646 33.6514ZM99.2223 29.923V36.9792H98.3546V29.923H99.2223ZM102.98 37.0651C102.491 37.0651 102.046 36.9538 101.645 36.7313C101.251 36.5088 100.94 36.1942 100.711 35.7873C100.488 35.3741 100.377 34.8973 100.377 34.357C100.377 33.823 100.491 33.3526 100.72 32.9457C100.955 32.5325 101.273 32.2179 101.674 32.0017C102.074 31.7792 102.522 31.668 103.018 31.668C103.514 31.668 103.962 31.7792 104.363 32.0017C104.763 32.2179 105.078 32.5294 105.307 32.9362C105.542 33.3431 105.66 33.8167 105.66 34.357C105.66 34.8973 105.539 35.3741 105.297 35.7873C105.062 36.1942 104.741 36.5088 104.334 36.7313C103.927 36.9538 103.476 37.0651 102.98 37.0651ZM102.98 36.3022C103.292 36.3022 103.584 36.2291 103.857 36.0829C104.131 35.9367 104.35 35.7174 104.515 35.425C104.687 35.1325 104.773 34.7766 104.773 34.357C104.773 33.9374 104.69 33.5814 104.525 33.289C104.36 32.9966 104.144 32.7805 103.877 32.6406C103.61 32.4944 103.32 32.4213 103.009 32.4213C102.691 32.4213 102.399 32.4944 102.132 32.6406C101.871 32.7805 101.661 32.9966 101.502 33.289C101.343 33.5814 101.264 33.9374 101.264 34.357C101.264 34.7829 101.34 35.1421 101.493 35.4345C101.652 35.7269 101.861 35.9462 102.122 36.0925C102.383 36.2323 102.669 36.3022 102.98 36.3022ZM106.476 34.357C106.476 33.8167 106.584 33.3462 106.801 32.9457C107.017 32.5389 107.315 32.2242 107.697 32.0017C108.085 31.7792 108.526 31.668 109.022 31.668C109.664 31.668 110.192 31.8237 110.605 32.1352C111.025 32.4467 111.301 32.879 111.435 33.4321H110.5C110.411 33.1142 110.237 32.8631 109.976 32.6788C109.722 32.4944 109.404 32.4022 109.022 32.4022C108.526 32.4022 108.126 32.5739 107.821 32.9171C107.516 33.2541 107.363 33.734 107.363 34.357C107.363 34.9863 107.516 35.4726 107.821 35.8159C108.126 36.1592 108.526 36.3308 109.022 36.3308C109.404 36.3308 109.722 36.2418 109.976 36.0638C110.23 35.8858 110.405 35.6316 110.5 35.301H111.435C111.295 35.835 111.015 36.2641 110.596 36.5883C110.176 36.9061 109.652 37.0651 109.022 37.0651C108.526 37.0651 108.085 36.9538 107.697 36.7313C107.315 36.5088 107.017 36.1942 106.801 35.7873C106.584 35.3805 106.476 34.9037 106.476 34.357ZM115.51 36.9792L113.46 34.6717V36.9792H112.593V29.923H113.46V34.0709L115.472 31.7538H116.683L114.223 34.357L116.693 36.9792H115.51ZM124.461 31.7538L122.83 36.9792H121.934L120.675 32.8313L119.417 36.9792H118.52L116.88 31.7538H117.767L118.968 36.1401L120.265 31.7538H121.152L122.42 36.1497L123.603 31.7538H124.461ZM127.601 37.0651C127.112 37.0651 126.667 36.9538 126.266 36.7313C125.872 36.5088 125.56 36.1942 125.332 35.7873C125.109 35.3741 124.998 34.8973 124.998 34.357C124.998 33.823 125.112 33.3526 125.341 32.9457C125.576 32.5325 125.894 32.2179 126.295 32.0017C126.695 31.7792 127.143 31.668 127.639 31.668C128.135 31.668 128.583 31.7792 128.984 32.0017C129.384 32.2179 129.699 32.5294 129.928 32.9362C130.163 33.3431 130.281 33.8167 130.281 34.357C130.281 34.8973 130.16 35.3741 129.918 35.7873C129.683 36.1942 129.362 36.5088 128.955 36.7313C128.548 36.9538 128.097 37.0651 127.601 37.0651ZM127.601 36.3022C127.913 36.3022 128.205 36.2291 128.478 36.0829C128.752 35.9367 128.971 35.7174 129.136 35.425C129.308 35.1325 129.394 34.7766 129.394 34.357C129.394 33.9374 129.311 33.5814 129.146 33.289C128.981 32.9966 128.764 32.7805 128.497 32.6406C128.23 32.4944 127.941 32.4213 127.63 32.4213C127.312 32.4213 127.019 32.4944 126.752 32.6406C126.492 32.7805 126.282 32.9966 126.123 33.289C125.964 33.5814 125.885 33.9374 125.885 34.357C125.885 34.7829 125.961 35.1421 126.114 35.4345C126.272 35.7269 126.482 35.9462 126.743 36.0925C127.003 36.2323 127.29 36.3022 127.601 36.3022ZM132.289 32.6025C132.442 32.3037 132.658 32.0717 132.938 31.9064C133.224 31.7411 133.57 31.6585 133.977 31.6585V32.5548H133.748C132.775 32.5548 132.289 33.0824 132.289 34.1377V36.9792H131.421V31.7538H132.289V32.6025ZM137.896 36.9792L135.846 34.6717V36.9792H134.979V29.923H135.846V34.0709L137.858 31.7538H139.069L136.609 34.357L139.079 36.9792H137.896Z" fill="white"/>
<path d="M64.4457 5.74314V9.51707H59.322V25.0811H54.6115V9.51707H49.4877V5.74314H64.4457ZM69.1788 8.11217C68.3524 8.11217 67.6729 7.87343 67.1403 7.39596C66.6261 6.90011 66.369 6.29408 66.369 5.57786C66.369 4.84328 66.6261 4.23725 67.1403 3.75977C67.6729 3.26392 68.3524 3.016 69.1788 3.016C69.9868 3.016 70.648 3.26392 71.1622 3.75977C71.6948 4.23725 71.961 4.84328 71.961 5.57786C71.961 6.29408 71.6948 6.90011 71.1622 7.39596C70.648 7.87343 69.9868 8.11217 69.1788 8.11217ZM71.5203 9.70989V25.0811H66.8098V9.70989H71.5203ZM94.5473 9.54461C96.4572 9.54461 97.9723 10.1231 99.0926 11.2801C100.231 12.437 100.8 14.0439 100.8 16.1008V25.0811H96.1175V16.7343C96.1175 15.7427 95.8512 14.9805 95.3186 14.448C94.8044 13.897 94.0882 13.6216 93.17 13.6216C92.2518 13.6216 91.5264 13.897 90.9938 14.448C90.4796 14.9805 90.2225 15.7427 90.2225 16.7343V25.0811H85.5395V16.7343C85.5395 15.7427 85.2732 14.9805 84.7406 14.448C84.2264 13.897 83.5102 13.6216 82.592 13.6216C81.6738 13.6216 80.9484 13.897 80.4158 14.448C79.9016 14.9805 79.6445 15.7427 79.6445 16.7343V25.0811H74.934V9.70989H79.6445V11.6382C80.1219 10.9954 80.7463 10.4904 81.5177 10.1231C82.289 9.73744 83.1613 9.54461 84.1346 9.54461C85.2916 9.54461 86.32 9.79253 87.2199 10.2884C88.1381 10.7842 88.8543 11.4913 89.3685 12.4095C89.9011 11.5647 90.6265 10.876 91.5447 10.3435C92.463 9.8109 93.4638 9.54461 94.5473 9.54461ZM118.585 17.1476C118.585 17.5883 118.557 18.0474 118.502 18.5249H107.841C107.915 19.4799 108.218 20.2144 108.75 20.7286C109.301 21.2245 109.972 21.4724 110.761 21.4724C111.937 21.4724 112.754 20.9766 113.213 19.9849H118.226C117.969 20.9949 117.501 21.904 116.822 22.712C116.16 23.5201 115.325 24.1536 114.315 24.6128C113.305 25.0719 112.175 25.3014 110.927 25.3014C109.421 25.3014 108.08 24.98 106.905 24.3373C105.729 23.6945 104.811 22.7763 104.15 21.5826C103.489 20.3889 103.158 18.9932 103.158 17.3955C103.158 15.7978 103.48 14.402 104.122 13.2083C104.784 12.0146 105.702 11.0964 106.877 10.4537C108.052 9.8109 109.402 9.48952 110.927 9.48952C112.414 9.48952 113.736 9.80172 114.893 10.4261C116.05 11.0505 116.95 11.9412 117.593 13.0982C118.254 14.2551 118.585 15.6049 118.585 17.1476ZM113.764 15.9079C113.764 15.0999 113.488 14.4571 112.937 13.9797C112.387 13.5022 111.698 13.2634 110.871 13.2634C110.082 13.2634 109.411 13.493 108.861 13.9521C108.328 14.4112 107.997 15.0632 107.869 15.9079H113.764ZM148.807 5.74314V25.0811H144.096V13.4838L139.772 25.0811H135.97L131.618 13.4563V25.0811H126.907V5.74314H132.472L137.898 19.1309L143.27 5.74314H148.807ZM151.258 17.3679C151.258 15.7886 151.552 14.402 152.139 13.2083C152.745 12.0146 153.563 11.0964 154.591 10.4537C155.619 9.8109 156.767 9.48952 158.034 9.48952C159.118 9.48952 160.064 9.70989 160.872 10.1506C161.698 10.5914 162.332 11.1699 162.772 11.8861V9.70989H167.483V25.0811H162.772V22.9049C162.313 23.6211 161.67 24.1996 160.844 24.6403C160.036 25.0811 159.09 25.3014 158.007 25.3014C156.758 25.3014 155.619 24.98 154.591 24.3373C153.563 23.6762 152.745 22.7488 152.139 21.5551C151.552 20.343 151.258 18.9473 151.258 17.3679ZM162.772 17.3955C162.772 16.2201 162.442 15.2927 161.781 14.6132C161.138 13.9337 160.348 13.594 159.412 13.594C158.475 13.594 157.676 13.9337 157.015 14.6132C156.372 15.2744 156.051 16.1926 156.051 17.3679C156.051 18.5433 156.372 19.4799 157.015 20.1777C157.676 20.8572 158.475 21.1969 159.412 21.1969C160.348 21.1969 161.138 20.8572 161.781 20.1777C162.442 19.4982 162.772 18.5708 162.772 17.3955ZM169.954 17.3955C169.954 15.7978 170.275 14.402 170.918 13.2083C171.579 12.0146 172.488 11.0964 173.645 10.4537C174.821 9.8109 176.161 9.48952 177.667 9.48952C179.596 9.48952 181.202 9.99454 182.488 11.0046C183.792 12.0146 184.646 13.4379 185.05 15.2744H180.036C179.614 14.099 178.797 13.5114 177.585 13.5114C176.721 13.5114 176.033 13.8511 175.519 14.5306C175.004 15.1917 174.747 16.1467 174.747 17.3955C174.747 18.6443 175.004 19.6084 175.519 20.2879C176.033 20.949 176.721 21.2796 177.585 21.2796C178.797 21.2796 179.614 20.6919 180.036 19.5166H185.05C184.646 21.3163 183.792 22.7304 182.488 23.7588C181.184 24.7872 179.577 25.3014 177.667 25.3014C176.161 25.3014 174.821 24.98 173.645 24.3373C172.488 23.6945 171.579 22.7763 170.918 21.5826C170.275 20.3889 169.954 18.9932 169.954 17.3955ZM197.018 9.54461C198.781 9.54461 200.195 10.1323 201.26 11.3076C202.325 12.4646 202.858 14.0623 202.858 16.1008V25.0811H198.175V16.7343C198.175 15.7059 197.909 14.9071 197.376 14.3378C196.844 13.7685 196.127 13.4838 195.228 13.4838C194.328 13.4838 193.611 13.7685 193.079 14.3378C192.546 14.9071 192.28 15.7059 192.28 16.7343V25.0811H187.569V4.69636H192.28V11.7759C192.757 11.0964 193.409 10.5547 194.236 10.1506C195.062 9.74662 195.99 9.54461 197.018 9.54461ZM208.5 8.11217C207.674 8.11217 206.995 7.87343 206.462 7.39596C205.948 6.90011 205.691 6.29408 205.691 5.57786C205.691 4.84328 205.948 4.23725 206.462 3.75977C206.995 3.26392 207.674 3.016 208.5 3.016C209.308 3.016 209.97 3.26392 210.484 3.75977C211.016 4.23725 211.283 4.84328 211.283 5.57786C211.283 6.29408 211.016 6.90011 210.484 7.39596C209.97 7.87343 209.308 8.11217 208.5 8.11217ZM210.842 9.70989V25.0811H206.131V9.70989H210.842ZM223.621 9.54461C225.421 9.54461 226.854 10.1323 227.919 11.3076C229.002 12.4646 229.544 14.0623 229.544 16.1008V25.0811H224.861V16.7343C224.861 15.7059 224.595 14.9071 224.062 14.3378C223.53 13.7685 222.813 13.4838 221.914 13.4838C221.014 13.4838 220.297 13.7685 219.765 14.3378C219.232 14.9071 218.966 15.7059 218.966 16.7343V25.0811H214.256V9.70989H218.966V11.7484C219.444 11.0689 220.086 10.5363 220.894 10.1506C221.702 9.74662 222.611 9.54461 223.621 9.54461ZM247.307 17.1476C247.307 17.5883 247.28 18.0474 247.224 18.5249H236.564C236.637 19.4799 236.94 20.2144 237.473 20.7286C238.024 21.2245 238.694 21.4724 239.484 21.4724C240.659 21.4724 241.476 20.9766 241.935 19.9849H246.949C246.692 20.9949 246.224 21.904 245.544 22.712C244.883 23.5201 244.047 24.1536 243.037 24.6128C242.027 25.0719 240.898 25.3014 239.649 25.3014C238.143 25.3014 236.803 24.98 235.627 24.3373C234.452 23.6945 233.534 22.7763 232.872 21.5826C232.211 20.3889 231.881 18.9932 231.881 17.3955C231.881 15.7978 232.202 14.402 232.845 13.2083C233.506 12.0146 234.424 11.0964 235.6 10.4537C236.775 9.8109 238.125 9.48952 239.649 9.48952C241.137 9.48952 242.459 9.80172 243.616 10.4261C244.773 11.0505 245.673 11.9412 246.315 13.0982C246.977 14.2551 247.307 15.6049 247.307 17.1476ZM242.486 15.9079C242.486 15.0999 242.211 14.4571 241.66 13.9797C241.109 13.5022 240.42 13.2634 239.594 13.2634C238.804 13.2634 238.134 13.493 237.583 13.9521C237.05 14.4112 236.72 15.0632 236.591 15.9079H242.486Z" fill="#7033FF"/>
<path fill-rule="evenodd" clip-rule="evenodd" d="M21.5052 43.0105C33.3822 43.0105 43.0105 33.3822 43.0105 21.5052C43.0105 9.62822 33.3822 0 21.5052 0C9.62822 0 0 9.62822 0 21.5052C0 33.3822 9.62822 43.0105 21.5052 43.0105ZM21.5053 38.7862C31.0493 38.7862 38.7863 31.0493 38.7863 21.5052C38.7863 11.9612 31.0493 4.22425 21.5053 4.22425C11.9613 4.22425 4.22429 11.9612 4.22429 21.5052C4.22429 31.0493 11.9613 38.7862 21.5053 38.7862Z" fill="#7033FF"/>
<path fill-rule="evenodd" clip-rule="evenodd" d="M19.7646 9.21655C19.0291 9.21655 18.4329 9.81277 18.4329 10.5482V23.8651C18.4329 23.9563 18.4421 24.0453 18.4595 24.1314C18.442 24.2175 18.4329 24.3066 18.4329 24.3978C18.4329 25.1333 19.0291 25.7295 19.7645 25.7295H33.0814C33.8169 25.7295 34.4131 25.1333 34.4131 24.3978C34.4131 23.6623 33.8169 23.0661 33.0814 23.0661L21.0963 23.0661V10.5482C21.0963 9.81277 20.5001 9.21655 19.7646 9.21655Z" fill="#7033FF"/>
</svg>
