<svg width="382" height="62" viewBox="0 0 382 62" fill="none" xmlns="http://www.w3.org/2000/svg">
<path d="M84.2643 44.3103V45.3275H81.6526V53.8909H80.4018V45.3275H77.7764V44.3103H84.2643ZM87.0548 47.5817C87.2748 47.151 87.5863 46.8165 87.9895 46.5783C88.4019 46.34 88.9013 46.2209 89.4878 46.2209V47.513H89.1579C87.7558 47.513 87.0548 48.2736 87.0548 49.7947V53.8909H85.804V46.3584H87.0548V47.5817ZM97.4195 46.3584L92.8835 57.4372H91.5915L93.076 53.8084L90.0382 46.3584H91.4265L93.7907 52.4613L96.1275 46.3584H97.4195ZM108.747 47.1144C108.747 47.9116 108.472 48.576 107.922 49.1075C107.381 49.6298 106.552 49.8909 105.434 49.8909H103.592V53.8909H102.341V44.3103H105.434C106.516 44.3103 107.336 44.5715 107.895 45.0938C108.463 45.6161 108.747 46.2896 108.747 47.1144ZM105.434 48.86C106.131 48.86 106.644 48.7088 106.974 48.4064C107.304 48.104 107.469 47.6733 107.469 47.1144C107.469 45.9323 106.79 45.3412 105.434 45.3412H103.592V48.86H105.434ZM111.552 47.5817C111.772 47.151 112.084 46.8165 112.487 46.5783C112.899 46.34 113.399 46.2209 113.985 46.2209V47.513H113.655C112.253 47.513 111.552 48.2736 111.552 49.7947V53.8909H110.302V46.3584H111.552V47.5817ZM118.714 54.0146C118.009 54.0146 117.367 53.8542 116.79 53.5335C116.222 53.2128 115.773 52.7592 115.443 52.1727C115.122 51.5771 114.962 50.8898 114.962 50.1109C114.962 49.3411 115.127 48.663 115.457 48.0765C115.796 47.4809 116.254 47.0273 116.831 46.7157C117.409 46.395 118.055 46.2347 118.769 46.2347C119.484 46.2347 120.13 46.395 120.707 46.7157C121.285 47.0273 121.738 47.4763 122.068 48.0628C122.407 48.6493 122.577 49.332 122.577 50.1109C122.577 50.8898 122.403 51.5771 122.055 52.1727C121.715 52.7592 121.253 53.2128 120.666 53.5335C120.08 53.8542 119.429 54.0146 118.714 54.0146ZM118.714 52.9149C119.163 52.9149 119.585 52.8096 119.979 52.5988C120.373 52.388 120.689 52.0719 120.927 51.6504C121.175 51.2288 121.299 50.7157 121.299 50.1109C121.299 49.5061 121.179 48.9929 120.941 48.5714C120.703 48.1499 120.391 47.8383 120.006 47.6367C119.622 47.4259 119.205 47.3205 118.756 47.3205C118.297 47.3205 117.876 47.4259 117.491 47.6367C117.115 47.8383 116.813 48.1499 116.584 48.5714C116.355 48.9929 116.24 49.5061 116.24 50.1109C116.24 50.7248 116.35 51.2426 116.57 51.6641C116.799 52.0856 117.102 52.4018 117.477 52.6125C117.853 52.8141 118.265 52.9149 118.714 52.9149ZM127.287 47.3893H125.706V53.8909H124.455V47.3893H123.479V46.3584H124.455V45.8223C124.455 44.9792 124.67 44.3653 125.101 43.9804C125.541 43.5864 126.242 43.3893 127.204 43.3893V44.434C126.654 44.434 126.265 44.544 126.036 44.7639C125.816 44.9747 125.706 45.3275 125.706 45.8223V46.3584H127.287V47.3893ZM129.144 53.9733C128.905 53.9733 128.704 53.8909 128.539 53.7259C128.374 53.561 128.292 53.3594 128.292 53.1211C128.292 52.8829 128.374 52.6813 128.539 52.5163C128.704 52.3514 128.905 52.2689 129.144 52.2689C129.373 52.2689 129.565 52.3514 129.721 52.5163C129.886 52.6813 129.968 52.8829 129.968 53.1211C129.968 53.3594 129.886 53.561 129.721 53.7259C129.565 53.8909 129.373 53.9733 129.144 53.9733ZM134.828 49.0937C134.828 48.159 135.039 47.3205 135.461 46.5783C135.882 45.8269 136.455 45.2404 137.179 44.8189C137.912 44.3973 138.723 44.1866 139.612 44.1866C140.656 44.1866 141.568 44.4386 142.347 44.9426C143.126 45.4466 143.694 46.1613 144.052 47.0869H142.553C142.288 46.5096 141.903 46.0651 141.399 45.7536C140.904 45.442 140.308 45.2862 139.612 45.2862C138.943 45.2862 138.343 45.442 137.811 45.7536C137.28 46.0651 136.863 46.5096 136.56 47.0869C136.258 47.655 136.107 48.324 136.107 49.0937C136.107 49.8543 136.258 50.5232 136.56 51.1005C136.863 51.6687 137.28 52.1085 137.811 52.4201C138.343 52.7317 138.943 52.8875 139.612 52.8875C140.308 52.8875 140.904 52.7363 141.399 52.4339C141.903 52.1223 142.288 51.6779 142.553 51.1005H144.052C143.694 52.0169 143.126 52.7271 142.347 53.2311C141.568 53.7259 140.656 53.9733 139.612 53.9733C138.723 53.9733 137.912 53.7672 137.179 53.3548C136.455 52.9333 135.882 52.3514 135.461 51.6091C135.039 50.8669 134.828 50.0284 134.828 49.0937ZM147.164 43.7192V53.8909H145.914V43.7192H147.164ZM152.581 54.0146C151.876 54.0146 151.234 53.8542 150.657 53.5335C150.089 53.2128 149.64 52.7592 149.31 52.1727C148.989 51.5771 148.829 50.8898 148.829 50.1109C148.829 49.3411 148.994 48.663 149.324 48.0765C149.663 47.4809 150.121 47.0273 150.698 46.7157C151.276 46.395 151.922 46.2347 152.636 46.2347C153.351 46.2347 153.997 46.395 154.574 46.7157C155.152 47.0273 155.605 47.4763 155.935 48.0628C156.274 48.6493 156.444 49.332 156.444 50.1109C156.444 50.8898 156.27 51.5771 155.921 52.1727C155.582 52.7592 155.12 53.2128 154.533 53.5335C153.947 53.8542 153.296 54.0146 152.581 54.0146ZM152.581 52.9149C153.03 52.9149 153.452 52.8096 153.846 52.5988C154.24 52.388 154.556 52.0719 154.794 51.6504C155.042 51.2288 155.165 50.7157 155.165 50.1109C155.165 49.5061 155.046 48.9929 154.808 48.5714C154.57 48.1499 154.258 47.8383 153.873 47.6367C153.489 47.4259 153.072 47.3205 152.623 47.3205C152.164 47.3205 151.743 47.4259 151.358 47.6367C150.982 47.8383 150.68 48.1499 150.451 48.5714C150.222 48.9929 150.107 49.5061 150.107 50.1109C150.107 50.7248 150.217 51.2426 150.437 51.6641C150.666 52.0856 150.969 52.4018 151.344 52.6125C151.72 52.8141 152.132 52.9149 152.581 52.9149ZM157.621 50.1109C157.621 49.332 157.777 48.6539 158.088 48.0765C158.4 47.4901 158.831 47.0365 159.381 46.7157C159.939 46.395 160.576 46.2347 161.291 46.2347C162.217 46.2347 162.977 46.4592 163.573 46.9082C164.178 47.3572 164.576 47.9803 164.769 48.7776H163.422C163.293 48.3194 163.041 47.9574 162.666 47.6917C162.299 47.4259 161.841 47.2931 161.291 47.2931C160.576 47.2931 159.999 47.5405 159.559 48.0353C159.119 48.521 158.899 49.2128 158.899 50.1109C158.899 51.0181 159.119 51.7191 159.559 52.2139C159.999 52.7088 160.576 52.9562 161.291 52.9562C161.841 52.9562 162.299 52.8279 162.666 52.5713C163.032 52.3147 163.284 51.9482 163.422 51.4717H164.769C164.567 52.2414 164.164 52.86 163.559 53.3273C162.954 53.7855 162.198 54.0146 161.291 54.0146C160.576 54.0146 159.939 53.8542 159.381 53.5335C158.831 53.2128 158.4 52.7592 158.088 52.1727C157.777 51.5862 157.621 50.8989 157.621 50.1109ZM170.644 53.8909L167.689 50.5645V53.8909H166.438V43.7192H167.689V49.6985L170.589 46.3584H172.335L168.788 50.1109L172.348 53.8909H170.644ZM183.546 46.3584L181.196 53.8909H179.903L178.089 47.9116L176.275 53.8909H174.983L172.618 46.3584H173.897L175.629 52.6813L177.498 46.3584H178.776L180.604 52.695L182.309 46.3584H183.546ZM188.073 54.0146C187.367 54.0146 186.725 53.8542 186.148 53.5335C185.58 53.2128 185.131 52.7592 184.801 52.1727C184.48 51.5771 184.32 50.8898 184.32 50.1109C184.32 49.3411 184.485 48.663 184.815 48.0765C185.154 47.4809 185.612 47.0273 186.189 46.7157C186.767 46.395 187.413 46.2347 188.128 46.2347C188.842 46.2347 189.488 46.395 190.066 46.7157C190.643 47.0273 191.097 47.4763 191.426 48.0628C191.765 48.6493 191.935 49.332 191.935 50.1109C191.935 50.8898 191.761 51.5771 191.413 52.1727C191.074 52.7592 190.611 53.2128 190.024 53.5335C189.438 53.8542 188.787 54.0146 188.073 54.0146ZM188.073 52.9149C188.522 52.9149 188.943 52.8096 189.337 52.5988C189.731 52.388 190.047 52.0719 190.286 51.6504C190.533 51.2288 190.657 50.7157 190.657 50.1109C190.657 49.5061 190.538 48.9929 190.299 48.5714C190.061 48.1499 189.749 47.8383 189.365 47.6367C188.98 47.4259 188.563 47.3205 188.114 47.3205C187.656 47.3205 187.234 47.4259 186.849 47.6367C186.473 47.8383 186.171 48.1499 185.942 48.5714C185.713 48.9929 185.598 49.5061 185.598 50.1109C185.598 50.7248 185.708 51.2426 185.928 51.6641C186.157 52.0856 186.46 52.4018 186.835 52.6125C187.211 52.8141 187.624 52.9149 188.073 52.9149ZM194.83 47.5817C195.05 47.151 195.362 46.8165 195.765 46.5783C196.178 46.34 196.677 46.2209 197.263 46.2209V47.513H196.934C195.531 47.513 194.83 48.2736 194.83 49.7947V53.8909H193.58V46.3584H194.83V47.5817ZM202.913 53.8909L199.958 50.5645V53.8909H198.707V43.7192H199.958V49.6985L202.858 46.3584H204.604L201.058 50.1109L204.618 53.8909H202.913ZM206.414 42.9495L206.249 45.6848H205.383L205.204 42.9495H206.414ZM210.636 54.0146C210.059 54.0146 209.541 53.9184 209.083 53.7259C208.625 53.5243 208.263 53.2494 207.997 52.9012C207.731 52.5438 207.585 52.136 207.557 51.6779H208.849C208.886 52.0536 209.06 52.3605 209.371 52.5988C209.692 52.8371 210.109 52.9562 210.622 52.9562C211.099 52.9562 211.474 52.8508 211.749 52.64C212.024 52.4293 212.162 52.1635 212.162 51.8428C212.162 51.5129 212.015 51.2701 211.722 51.1143C211.429 50.9493 210.975 50.789 210.361 50.6332C209.802 50.4866 209.344 50.34 208.987 50.1933C208.638 50.0376 208.336 49.8131 208.079 49.5198C207.832 49.2174 207.708 48.8234 207.708 48.3377C207.708 47.9528 207.823 47.6 208.052 47.2793C208.281 46.9586 208.606 46.7066 209.028 46.5233C209.449 46.3309 209.93 46.2347 210.471 46.2347C211.305 46.2347 211.978 46.4454 212.492 46.8669C213.005 47.2885 213.28 47.8658 213.316 48.5989H212.066C212.038 48.2048 211.878 47.8887 211.584 47.6504C211.3 47.4122 210.916 47.2931 210.43 47.2931C209.981 47.2931 209.623 47.3893 209.358 47.5817C209.092 47.7741 208.959 48.0261 208.959 48.3377C208.959 48.5851 209.037 48.7913 209.193 48.9563C209.358 49.112 209.559 49.2403 209.798 49.3411C210.045 49.4328 210.384 49.5381 210.815 49.6573C211.355 49.8039 211.795 49.9505 212.134 50.0971C212.473 50.2346 212.762 50.4453 213 50.7294C213.248 51.0135 213.376 51.3846 213.385 51.8428C213.385 52.2552 213.271 52.6263 213.041 52.9562C212.812 53.2861 212.487 53.5472 212.066 53.7397C211.653 53.9229 211.177 54.0146 210.636 54.0146Z" fill="white"/>
<path d="M92.8992 8.12422V13.5644H85.5133V36H78.7231V13.5644H71.3372V8.12422H92.8992ZM99.722 11.5392C98.5308 11.5392 97.5513 11.1951 96.7836 10.5068C96.0423 9.792 95.6717 8.9184 95.6717 7.88596C95.6717 6.82705 96.0423 5.95345 96.7836 5.26516C97.5513 4.5504 98.5308 4.19302 99.722 4.19302C100.887 4.19302 101.84 4.5504 102.581 5.26516C103.349 5.95345 103.733 6.82705 103.733 7.88596C103.733 8.9184 103.349 9.792 102.581 10.5068C101.84 11.1951 100.887 11.5392 99.722 11.5392ZM103.097 13.8423V36H96.3071V13.8423H103.097ZM136.291 13.6041C139.044 13.6041 141.228 14.438 142.843 16.1057C144.484 17.7735 145.305 20.0899 145.305 23.0548V36H138.554V23.9681C138.554 22.5386 138.171 21.44 137.403 20.6723C136.662 19.8781 135.629 19.481 134.306 19.481C132.982 19.481 131.936 19.8781 131.169 20.6723C130.427 21.44 130.057 22.5386 130.057 23.9681V36H123.306V23.9681C123.306 22.5386 122.922 21.44 122.155 20.6723C121.413 19.8781 120.381 19.481 119.057 19.481C117.734 19.481 116.688 19.8781 115.92 20.6723C115.179 21.44 114.808 22.5386 114.808 23.9681V36H108.018V13.8423H114.808V16.622C115.497 15.6954 116.397 14.9674 117.509 14.438C118.62 13.882 119.878 13.6041 121.281 13.6041C122.949 13.6041 124.431 13.9615 125.728 14.6762C127.052 15.391 128.084 16.4102 128.826 17.7338C129.593 16.5161 130.639 15.5233 131.963 14.7556C133.286 13.9879 134.729 13.6041 136.291 13.6041ZM170.941 24.5638C170.941 25.1991 170.901 25.8609 170.822 26.5492H155.454C155.56 27.9258 155.997 28.9847 156.765 29.726C157.559 30.4407 158.525 30.7981 159.664 30.7981C161.358 30.7981 162.536 30.0833 163.198 28.6538H170.425C170.054 30.1098 169.379 31.4202 168.4 32.585C167.447 33.7498 166.242 34.6631 164.786 35.3249C163.33 35.9868 161.702 36.3177 159.902 36.3177C157.731 36.3177 155.799 35.8544 154.104 34.9279C152.41 34.0013 151.086 32.6777 150.133 30.9569C149.18 29.2362 148.704 27.2243 148.704 24.9212C148.704 22.618 149.167 20.6061 150.094 18.8854C151.047 17.1647 152.37 15.841 154.065 14.9145C155.759 13.9879 157.705 13.5247 159.902 13.5247C162.046 13.5247 163.952 13.9747 165.62 14.8748C167.288 15.7748 168.585 17.0588 169.511 18.7265C170.464 20.3943 170.941 22.3401 170.941 24.5638ZM163.992 22.7769C163.992 21.6121 163.595 20.6855 162.801 19.9972C162.006 19.3089 161.014 18.9648 159.822 18.9648C158.684 18.9648 157.718 19.2957 156.924 19.9575C156.156 20.6193 155.679 21.5591 155.494 22.7769H163.992ZM214.507 8.12422V36H207.716V19.2825L201.482 36H196.002L189.728 19.2428V36H182.938V8.12422H190.959L198.782 27.4228L206.525 8.12422H214.507ZM218.04 24.8815C218.04 22.6048 218.463 20.6061 219.31 18.8854C220.184 17.1647 221.362 15.841 222.844 14.9145C224.327 13.9879 225.981 13.5247 227.808 13.5247C229.37 13.5247 230.733 13.8423 231.898 14.4777C233.089 15.113 234.003 15.9469 234.638 16.9793V13.8423H241.428V36H234.638V32.863C233.976 33.8954 233.05 34.7293 231.858 35.3647C230.694 36 229.33 36.3177 227.768 36.3177C225.968 36.3177 224.327 35.8544 222.844 34.9279C221.362 33.9748 220.184 32.638 219.31 30.9172C218.463 29.17 218.04 27.1581 218.04 24.8815ZM234.638 24.9212C234.638 23.2269 234.162 21.89 233.208 20.9105C232.282 19.9311 231.144 19.4413 229.794 19.4413C228.443 19.4413 227.292 19.9311 226.339 20.9105C225.412 21.8636 224.949 23.1872 224.949 24.8815C224.949 26.5757 225.412 27.9258 226.339 28.9318C227.292 29.9113 228.443 30.401 229.794 30.401C231.144 30.401 232.282 29.9113 233.208 28.9318C234.162 27.9523 234.638 26.6154 234.638 24.9212ZM244.991 24.9212C244.991 22.618 245.454 20.6061 246.38 18.8854C247.333 17.1647 248.644 15.841 250.312 14.9145C252.006 13.9879 253.938 13.5247 256.109 13.5247C258.889 13.5247 261.205 14.2527 263.058 15.7087C264.938 17.1647 266.169 19.2163 266.751 21.8636H259.524C258.915 20.1693 257.737 19.3222 255.99 19.3222C254.746 19.3222 253.753 19.8119 253.012 20.7914C252.271 21.7444 251.9 23.121 251.9 24.9212C251.9 26.7213 252.271 28.1111 253.012 29.0906C253.753 30.0436 254.746 30.5201 255.99 30.5201C257.737 30.5201 258.915 29.673 259.524 27.9788H266.751C266.169 30.5731 264.938 32.6115 263.058 34.094C261.179 35.5764 258.862 36.3177 256.109 36.3177C253.938 36.3177 252.006 35.8544 250.312 34.9279C248.644 34.0013 247.333 32.6777 246.38 30.9569C245.454 29.2362 244.991 27.2243 244.991 24.9212ZM284.004 13.6041C286.545 13.6041 288.583 14.4512 290.119 16.1455C291.654 17.8132 292.422 20.1164 292.422 23.0548V36H285.671V23.9681C285.671 22.4857 285.287 21.3341 284.52 20.5135C283.752 19.6928 282.72 19.2825 281.422 19.2825C280.125 19.2825 279.093 19.6928 278.325 20.5135C277.557 21.3341 277.174 22.4857 277.174 23.9681V36H270.383V6.61527H277.174V16.8205C277.862 15.841 278.802 15.0601 279.993 14.4777C281.184 13.8953 282.521 13.6041 284.004 13.6041ZM300.555 11.5392C299.364 11.5392 298.385 11.1951 297.617 10.5068C296.876 9.792 296.505 8.9184 296.505 7.88596C296.505 6.82705 296.876 5.95345 297.617 5.26516C298.385 4.5504 299.364 4.19302 300.555 4.19302C301.72 4.19302 302.673 4.5504 303.414 5.26516C304.182 5.95345 304.566 6.82705 304.566 7.88596C304.566 8.9184 304.182 9.792 303.414 10.5068C302.673 11.1951 301.72 11.5392 300.555 11.5392ZM303.931 13.8423V36H297.14V13.8423H303.931ZM322.353 13.6041C324.947 13.6041 327.012 14.4512 328.547 16.1455C330.109 17.8132 330.89 20.1164 330.89 23.0548V36H324.14V23.9681C324.14 22.4857 323.756 21.3341 322.988 20.5135C322.22 19.6928 321.188 19.2825 319.891 19.2825C318.593 19.2825 317.561 19.6928 316.793 20.5135C316.026 21.3341 315.642 22.4857 315.642 23.9681V36H308.852V13.8423H315.642V16.7808C316.33 15.8013 317.257 15.0336 318.421 14.4777C319.586 13.8953 320.897 13.6041 322.353 13.6041ZM356.496 24.5638C356.496 25.1991 356.456 25.8609 356.376 26.5492H341.009C341.115 27.9258 341.552 28.9847 342.319 29.726C343.114 30.4407 344.08 30.7981 345.218 30.7981C346.912 30.7981 348.091 30.0833 348.752 28.6538H355.979C355.609 30.1098 354.934 31.4202 353.954 32.585C353.001 33.7498 351.797 34.6631 350.341 35.3249C348.885 35.9868 347.257 36.3177 345.456 36.3177C343.286 36.3177 341.353 35.8544 339.659 34.9279C337.965 34.0013 336.641 32.6777 335.688 30.9569C334.735 29.2362 334.259 27.2243 334.259 24.9212C334.259 22.618 334.722 20.6061 335.648 18.8854C336.601 17.1647 337.925 15.841 339.619 14.9145C341.314 13.9879 343.259 13.5247 345.456 13.5247C347.601 13.5247 349.507 13.9747 351.175 14.8748C352.842 15.7748 354.14 17.0588 355.066 18.7265C356.019 20.3943 356.496 22.3401 356.496 24.5638ZM349.547 22.7769C349.547 21.6121 349.149 20.6855 348.355 19.9972C347.561 19.3089 346.568 18.9648 345.377 18.9648C344.239 18.9648 343.272 19.2957 342.478 19.9575C341.711 20.6193 341.234 21.5591 341.049 22.7769H349.547Z" fill="#7033FF"/>
<path fill-rule="evenodd" clip-rule="evenodd" d="M31 62C48.1208 62 62 48.1208 62 31C62 13.8792 48.1208 0 31 0C13.8792 0 0 13.8792 0 31C0 48.1208 13.8792 62 31 62ZM31 55.9107C44.7578 55.9107 55.9107 44.7578 55.9107 31C55.9107 17.2422 44.7578 6.08929 31 6.08929C17.2422 6.08929 6.08929 17.2422 6.08929 31C6.08929 44.7578 17.2422 55.9107 31 55.9107Z" fill="#7033FF"/>
<path fill-rule="evenodd" clip-rule="evenodd" d="M28.4911 13.2856C27.4309 13.2856 26.5714 14.1451 26.5714 15.2053V34.4017C26.5714 34.5332 26.5846 34.6616 26.6098 34.7857C26.5846 34.9097 26.5714 35.0381 26.5714 35.1696C26.5714 36.2298 27.4309 37.0892 28.4911 37.0892H47.6875C48.7477 37.0892 49.6071 36.2298 49.6071 35.1696C49.6071 34.1094 48.7477 33.2499 47.6875 33.2499H30.4107V15.2053C30.4107 14.1451 29.5512 13.2856 28.4911 13.2856Z" fill="#7033FF"/>
</svg>
