<svg width="246" height="282" viewBox="0 0 246 282" fill="none" xmlns="http://www.w3.org/2000/svg">
<path opacity="0.3" d="M152.93 90.779C153.653 91.1375 154.052 91.9399 154.104 92.7426L155.282 110.241C155.346 111.19 154.872 112.093 154.055 112.58C153.247 113.071 152.221 113.054 151.417 112.549L145.79 109.009L138.509 119.972C142.554 123.955 145.743 128.918 147.61 134.677C150.297 142.97 149.837 151.539 146.91 159.1L162.809 167.21L165.762 161.429C166.071 160.825 166.996 160.044 168.016 160.05C168.966 160.057 169.834 160.585 170.264 161.433L178.204 177.072C178.57 177.791 178.569 178.643 178.2 179.361C177.833 180.08 177.141 180.574 176.345 180.709L159.013 183.454C158.075 183.603 157.131 183.212 156.572 182.443C156.013 181.674 155.935 180.658 156.368 179.81L159.362 173.949L143.464 165.839C139.052 172.643 132.38 178.041 124.081 180.73C116.22 183.278 108.124 182.973 100.863 180.454L79.4757 213.037L84.7738 216.371C85.5786 216.876 86.0297 217.79 85.9436 218.736C85.8576 219.682 85.2464 220.5 84.3644 220.852L68.0658 227.357C67.3033 227.634 66.4673 227.576 65.784 227.149C65.0998 226.719 64.6625 225.988 64.6099 225.183L63.4341 207.683C63.3707 206.737 63.8388 205.825 64.6617 205.347C65.7091 204.738 66.6592 204.975 67.3002 205.379L73.0643 209.004L93.9287 177.216C86.6436 172.828 80.8319 165.931 78.011 157.227C75.3632 149.057 75.783 140.627 78.5931 133.151L29.3216 108.622L26.4419 114.259C26.0089 115.107 25.1405 115.642 24.1884 115.638C23.2394 115.636 22.3698 115.104 21.9399 114.255L14.0002 98.6169C13.6335 97.8975 13.6632 97.0576 14.0037 96.328C14.4726 95.3271 15.7273 95.0032 15.8585 94.9794L33.1905 92.2322C34.1278 92.0832 35.0719 92.474 35.6286 93.244C36.1869 94.0107 36.2658 95.0289 35.8343 95.8735L32.7684 101.875L81.9535 126.36C86.3614 119.414 93.117 113.901 101.539 111.171C112.368 107.662 123.668 109.496 132.575 115.203L139.373 104.967L133.938 101.55C133.134 101.047 132.682 100.131 132.768 99.1845C132.854 98.2383 133.466 97.4209 134.348 97.0683L150.646 90.5636C150.703 90.548 151.744 90.1918 152.93 90.779ZM215.672 223.072C199.382 228.351 181.836 219.4 176.559 203.12C171.283 186.84 180.244 169.299 196.534 164.019C212.824 158.74 230.37 167.691 235.646 183.971C240.922 200.251 231.964 217.792 215.672 223.072ZM50.2934 225.391C58.367 222.775 66.9741 226.28 71.086 233.322L156.845 205.529L154.83 199.313C154.537 198.41 154.812 197.453 155.449 196.747C156.184 195.932 157.498 195.966 158.018 196.136L174.698 201.58C175.466 201.83 176.067 202.433 176.316 203.202C176.564 203.967 176.431 204.809 175.957 205.464L165.641 219.657C165.083 220.425 164.137 220.811 163.202 220.669C162.264 220.519 161.487 219.855 161.195 218.954L159.181 212.738L73.4222 240.531C74.2224 248.646 69.3076 256.533 61.234 259.15C51.9228 262.167 41.8911 257.052 38.8753 247.746C35.8595 238.441 40.9823 228.409 50.2934 225.391ZM96.0052 81.8085L99.0876 91.3195L105.307 89.3039C105.325 89.3008 105.339 89.2961 105.355 89.2882C106.683 88.8581 108.107 89.5846 108.536 90.9109C108.758 91.5945 108.673 92.3054 108.355 92.8891L103.035 109.162C102.53 110.695 100.454 111.368 99.1505 110.421L84.955 100.115C84.186 99.5552 83.7955 98.6139 83.9449 97.6739C84.0927 96.737 84.7574 95.961 85.6615 95.668L91.881 93.6524L88.7987 84.1413C75.937 86.3661 63.0241 78.8797 58.8871 66.1145C54.3532 52.1245 62.0525 37.0531 76.0507 32.5165C90.0489 27.98 105.125 35.6704 109.659 49.6604C113.794 62.4287 107.727 76.0662 96.0052 81.8085ZM170.228 93.2085C159.904 96.5543 148.787 90.8833 145.443 80.5677C142.1 70.2522 147.778 59.1382 158.102 55.7924C168.424 52.4473 179.541 58.1184 182.884 68.434C186.229 78.7487 180.549 89.8635 170.228 93.2085ZM0.997939 107.356C-10.2253 110.993 -22.3123 104.827 -25.9474 93.6104C-29.5825 82.3938 -23.4097 70.3104 -12.1865 66.6732C-0.965663 63.0367 11.1213 69.2025 14.7564 80.4191C18.394 91.635 12.2212 103.718 0.997939 107.356Z" fill="url(#paint0_linear)"/>
<defs>
<linearGradient id="paint0_linear" x1="-66.0567" y1="268.524" x2="208.489" y2="27.8451" gradientUnits="userSpaceOnUse">
<stop stop-color="#7033FF"/>
<stop offset="0.195347" stop-color="#4E7CFF"/>
<stop offset="1" stop-color="#F65164"/>
</linearGradient>
</defs>
</svg>
